<?xml version="1.0" encoding="UTF-8" standalone="no"?><!DOCTYPE svg PUBLIC "-//W3C//DTD SVG 1.1//EN" "http://www.w3.org/Graphics/SVG/1.1/DTD/svg11.dtd"><svg width="100%" height="100%" viewBox="0 0 139 49" version="1.1" xmlns="http://www.w3.org/2000/svg" xmlns:xlink="http://www.w3.org/1999/xlink" xml:space="preserve" style="fill-rule:evenodd;clip-rule:evenodd;stroke-linejoin:round;stroke-miterlimit:1.41421;"><g><g><path d="M114.248,3.241c-11.591,0 -21.02,9.43 -21.02,21.02c0,11.59 9.429,21.022 21.02,21.022c11.591,0 21.021,-9.432 21.021,-21.022c0,-11.59 -9.43,-21.02 -21.021,-21.02m0,45.281c-13.378,0 -24.261,-10.883 -24.261,-24.261c0,-13.377 10.883,-24.261 24.261,-24.261c13.378,0 24.262,10.884 24.262,24.261c0,13.378 -10.884,24.261 -24.262,24.261" style="fill:#fff;fill-rule:nonzero;"/><path d="M113.55,30.337l0,6.509l-1.103,0l0,-27.108l-6.334,0c-0.983,0 -1.618,0.636 -1.618,1.619c0,0.982 0.635,1.618 1.618,1.618l3.097,0l0,23.871l-3.097,0c-0.983,0 -1.618,0.635 -1.618,1.618c0,0.982 0.635,1.618 1.618,1.618l8.502,0c0.983,0 1.618,-0.636 1.618,-1.618l0,-8.127l-2.683,0Z" style="fill:#fff;fill-rule:nonzero;"/><path d="M122.984,25.97l-6.748,0l0,-12.995l6.748,0l0,12.995Zm0.421,-16.232l-7.037,0c-1.553,0 -2.815,1.263 -2.815,2.815l0,16.653l9.852,0c1.579,0 2.815,-1.236 2.815,-2.815l0,-13.838c0,-1.552 -1.263,-2.815 -2.815,-2.815" style="fill:#fff;fill-rule:nonzero;"/></g><g><path d="M0,27.794l1.755,0l0,-3.735l2.64,0c2.085,0 3.27,-1.44 3.27,-3.135c0,-1.695 -1.17,-3.135 -3.27,-3.135l-4.395,0l0,10.005Zm5.865,-6.87c0,0.96 -0.72,1.59 -1.71,1.59l-2.4,0l0,-3.18l2.4,0c0.99,0 1.71,0.63 1.71,1.59Z" style="fill:#f1f1f1;fill-rule:nonzero;"/><path d="M12.12,27.974c2.325,0 3.735,-1.725 3.735,-3.81c0,-2.07 -1.41,-3.795 -3.735,-3.795c-2.295,0 -3.72,1.725 -3.72,3.795c0,2.085 1.425,3.81 3.72,3.81Zm0,-1.395c-1.335,0 -2.085,-1.125 -2.085,-2.415c0,-1.275 0.75,-2.4 2.085,-2.4c1.35,0 2.1,1.125 2.1,2.4c0,1.29 -0.75,2.415 -2.1,2.415Z" style="fill:#f1f1f1;fill-rule:nonzero;"/><path d="M23.76,27.794l1.65,0l2.25,-7.245l-1.635,0l-1.53,5.265l-1.725,-5.265l-1.38,0l-1.725,5.265l-1.53,-5.265l-1.635,0l2.25,7.245l1.65,0l1.68,-5.31l1.68,5.31Z" style="fill:#f1f1f1;fill-rule:nonzero;"/><path d="M28.305,24.164c0,2.295 1.62,3.81 3.795,3.81c1.155,0 2.22,-0.36 2.94,-1.05l-0.72,-1.035c-0.51,0.51 -1.35,0.795 -2.055,0.795c-1.365,0 -2.19,-0.9 -2.31,-1.995l5.595,0l0,-0.375c0,-2.28 -1.395,-3.945 -3.57,-3.945c-2.145,0 -3.675,1.695 -3.675,3.795Zm3.675,-2.505c1.425,0 2.01,1.065 2.04,1.92l-4.08,0c0.075,-0.885 0.69,-1.92 2.04,-1.92Z" style="fill:#f1f1f1;fill-rule:nonzero;"/><path d="M37.11,27.794l1.575,0l0,-4.935c0.315,-0.51 1.2,-0.96 1.86,-0.96c0.195,0 0.36,0.015 0.495,0.045l0,-1.56c-0.945,0 -1.815,0.54 -2.355,1.23l0,-1.065l-1.575,0l0,7.245Z" style="fill:#f1f1f1;fill-rule:nonzero;"/><path d="M41.865,24.164c0,2.295 1.62,3.81 3.795,3.81c1.155,0 2.22,-0.36 2.94,-1.05l-0.72,-1.035c-0.51,0.51 -1.35,0.795 -2.055,0.795c-1.365,0 -2.19,-0.9 -2.31,-1.995l5.595,0l0,-0.375c0,-2.28 -1.395,-3.945 -3.57,-3.945c-2.145,0 -3.675,1.695 -3.675,3.795Zm3.675,-2.505c1.425,0 2.01,1.065 2.04,1.92l-4.08,0c0.075,-0.885 0.69,-1.92 2.04,-1.92Z" style="fill:#f1f1f1;fill-rule:nonzero;"/><path d="M55.77,27.794l1.575,0l0,-10.005l-1.575,0l0,3.765c-0.585,-0.765 -1.425,-1.185 -2.325,-1.185c-1.875,0 -3.225,1.47 -3.225,3.81c0,2.385 1.365,3.795 3.225,3.795c0.93,0 1.77,-0.45 2.325,-1.17l0,0.99Zm0,-2.175c-0.36,0.54 -1.125,0.96 -1.875,0.96c-1.245,0 -2.04,-1.005 -2.04,-2.4c0,-1.41 0.795,-2.415 2.04,-2.415c0.75,0 1.515,0.435 1.875,0.975l0,2.88Z" style="fill:#f1f1f1;fill-rule:nonzero;"/><path d="M63.24,27.794l1.575,0l0,-0.99c0.555,0.72 1.38,1.17 2.325,1.17c1.845,0 3.21,-1.41 3.21,-3.795c0,-2.34 -1.35,-3.81 -3.21,-3.81c-0.915,0 -1.755,0.42 -2.325,1.185l0,-3.765l-1.575,0l0,10.005Zm1.575,-2.175l0,-2.865c0.345,-0.54 1.125,-0.99 1.86,-0.99c1.26,0 2.055,1.005 2.055,2.415c0,1.41 -0.795,2.4 -2.055,2.4c-0.735,0 -1.515,-0.42 -1.86,-0.96Z" style="fill:#f1f1f1;fill-rule:nonzero;"/><path d="M71.88,29.219l-0.24,1.41c0.225,0.06 0.66,0.105 0.885,0.105c1.125,-0.015 1.995,-0.405 2.49,-1.635l3.495,-8.55l-1.695,0l-2.115,5.43l-2.115,-5.43l-1.68,0l2.97,7.335l-0.36,0.825c-0.21,0.48 -0.54,0.63 -1.035,0.63c-0.18,0 -0.435,-0.045 -0.6,-0.12Z" style="fill:#f1f1f1;fill-rule:nonzero;"/></g></g></svg>