<?xml version="1.0" encoding="UTF-8" standalone="no"?><!DOCTYPE svg PUBLIC "-//W3C//DTD SVG 1.1//EN" "http://www.w3.org/Graphics/SVG/1.1/DTD/svg11.dtd"><svg width="100%" height="100%" viewBox="0 0 73 25" version="1.1" xmlns="http://www.w3.org/2000/svg" xmlns:xlink="http://www.w3.org/1999/xlink" xml:space="preserve" style="fill-rule:evenodd;clip-rule:evenodd;stroke-linejoin:round;stroke-miterlimit:1.41421;"><g><rect x="36.308" y="6.025" width="3.516" height="17.658" style="fill:#fff;"/><path d="M42.047,6.025l14.777,0l0,3.301l-5.63,0l0,14.357l-3.516,0l0,-14.357l-5.631,0l0,-3.301Z" style="fill:#fff;"/><path d="M58.976,6.286l8.468,0l0,0c3.062,0.004 4.74,2.179 4.74,4.662c0,2.472 -1.585,3.534 -1.601,3.545c0.022,0.006 2.372,0.668 2.372,4.086c0,3.387 -2.534,5.312 -5.153,5.364l0,0.001l-5.31,0l-3.516,0l0,-17.658Zm8.698,10.06l-5.182,0l0,4.558l5.31,0c0.302,-0.004 2.009,-0.695 2.009,-2.269c0,-1.702 -1.491,-2.289 -2.137,-2.289Zm-5.182,-7.02l0,3.981l3.872,0c1.246,0 2.722,-0.544 2.722,-2.122c0,-1.579 -2.116,-1.859 -2.116,-1.859l-4.478,0Z" style="fill:#ff3900;"/><circle cx="38.066" cy="2.106" r="2.106" style="fill:#fff;"/><path d="M18.063,23.683l0,-17.658l3.516,0l0,1.727c0,0 1.659,-2.225 4.814,-2.225c5.873,0 6.163,4.722 6.163,4.722l0,0l0,0l0,13.434l-3.516,0l0,-11.806c-0.008,-0.479 -0.185,-3.092 -3.023,-3.092c-3.706,0 -4.438,4.555 -4.438,4.555l0,10.343l-3.516,0Z" style="fill:#fff;"/><path d="M0,19.742l0,-13.717l3.516,0l0,12.088c0.009,0.48 0.185,3.093 3.023,3.093c3.707,0 4.447,-4.555 4.447,-4.555l0,5.587c0,0 -1.668,2.226 -4.823,2.226c-5.839,0 -6.159,-4.667 -6.163,-4.722l0,0l0,0l0,0Zm10.986,-13.717l3.516,0l0,17.658l-3.516,0l0,-17.658Z" style="fill:#fff;"/></g></svg>