<?xml version="1.0" encoding="utf-8"?>
<!-- Generator: Adobe Illustrator 21.0.0, SVG Export Plug-In . SVG Version: 6.00 Build 0)  -->
<svg version="1.1" id="Layer_1" xmlns="http://www.w3.org/2000/svg" xmlns:xlink="http://www.w3.org/1999/xlink" x="0px" y="0px"
	 width="100px" height="118px" viewBox="0 0 100 118" style="enable-background:new 0 0 100 118;" xml:space="preserve">
<style type="text/css">
	.st0{fill:#33FE33;}
</style>
<g id="logo">
	<g>
		<rect y="85" class="st0" width="4.7" height="4.7"/>
		<rect class="st0" width="4.7" height="4.7"/>
		<rect y="66.1" class="st0" width="4.7" height="4.7"/>
		<rect y="75.5" class="st0" width="4.7" height="4.7"/>
		<rect y="113.3" class="st0" width="4.7" height="4.7"/>
		<rect y="103.8" class="st0" width="4.7" height="4.7"/>
		<rect y="94.4" class="st0" width="4.7" height="4.7"/>
		<rect y="47.2" class="st0" width="4.7" height="4.7"/>
		<rect y="56.6" class="st0" width="4.7" height="4.7"/>
		<rect y="37.8" class="st0" width="4.7" height="4.7"/>
		<rect y="18.9" class="st0" width="4.7" height="4.7"/>
		<rect y="28.3" class="st0" width="4.7" height="4.7"/>
		<rect y="9.4" class="st0" width="4.7" height="4.7"/>
	</g>
	<g>
		<path class="st0" d="M9.3,94.4v4.7h90.4c0,0,0.1-4.7,0-4.7H9.3z"/>
		<path class="st0" d="M9.3,4.7h72c-0.1,0,0.2-4.7,0-4.7h-72V4.7z"/>
		<rect x="9.3" y="66.1" class="st0" width="83" height="4.7"/>
		<path class="st0" d="M9.3,75.5v4.7H98c0,0,0-4.7,0-4.7H9.3z"/>
		<path class="st0" d="M9.3,113.3v4.7h78.4c0,0,0-4.7,0-4.7H9.3z"/>
		<rect x="9.3" y="85" class="st0" width="90.7" height="4.7"/>
		<path class="st0" d="M9.3,103.8v4.7h87.1c0,0,0-4.7,0-4.7H9.3z"/>
		<path class="st0" d="M88.7,51.9c-0.1,0-0.1-4.7,0-4.7H9.3v4.7H88.7z"/>
		<path class="st0" d="M93.3,42.5c0.3,0,0.3-4.7,0-4.7h-84v4.7H93.3z"/>
		<path class="st0" d="M90,14.2c-0.1,0-0.1-4.7,0-4.7H9.3v4.7H90z"/>
		<path class="st0" d="M77.1,61.4c0,0,0-4.7,0-4.7H9.3v4.7H77.1z"/>
		<path class="st0" d="M93.8,23.6c0.1,0,0.1-4.7,0-4.7H9.3v4.7H93.8z"/>
		<path class="st0" d="M94.9,33c-0.1,0-0.1-4.7,0-4.7H9.3V33H94.9z"/>
	</g>
</g>
</svg>
